<mxfile host="app.diagrams.net" modified="2021-07-03T13:37:04.556Z" agent="5.0 (Windows NT 10.0; Win64; x64) AppleWebKit/537.36 (KHTML, like Gecko) Chrome/91.0.4472.124 Safari/537.36" etag="Y-qmj05joAwZvgeHgCm1" version="14.8.4" type="github">
  <diagram name="Page-1" id="e3a06f82-3646-2815-327d-82caf3d4e204">
    <mxGraphModel dx="1588" dy="901" grid="1" gridSize="10" guides="1" tooltips="1" connect="1" arrows="1" fold="1" page="1" pageScale="1.5" pageWidth="1169" pageHeight="826" background="none" math="0" shadow="0">
      <root>
        <mxCell id="0" style=";html=1;" />
        <mxCell id="1" style=";html=1;" parent="0" />
        <mxCell id="6a7d8f32e03d9370-62" value="Architekturdiagramm Thought Collector" style="text;strokeColor=none;fillColor=none;html=1;fontSize=24;fontStyle=1;verticalAlign=middle;align=center;" parent="1" vertex="1">
          <mxGeometry x="365.53" y="140" width="861" height="40" as="geometry" />
        </mxCell>
        <mxCell id="vIYF7zvxIkphKYh6N7FT-4" value="" style="group" vertex="1" connectable="0" parent="1">
          <mxGeometry x="611.03" y="250" width="370" height="420" as="geometry" />
        </mxCell>
        <mxCell id="vIYF7zvxIkphKYh6N7FT-1" value="" style="whiteSpace=wrap;html=1;aspect=fixed;fillColor=#dae8fc;strokeColor=#6c8ebf;" vertex="1" parent="vIYF7zvxIkphKYh6N7FT-4">
          <mxGeometry y="-10" width="360" height="360" as="geometry" />
        </mxCell>
        <mxCell id="vIYF7zvxIkphKYh6N7FT-2" value="&lt;font&gt;&lt;font style=&quot;font-size: 21px&quot;&gt;React&lt;/font&gt;&lt;br&gt;&lt;span style=&quot;font-size: 19px&quot;&gt;(&lt;/span&gt;&lt;font style=&quot;font-size: 17px&quot;&gt;View&lt;/font&gt;&lt;span style=&quot;font-size: 19px&quot;&gt;)&lt;/span&gt;&lt;br&gt;&lt;br&gt;&lt;/font&gt;" style="text;html=1;strokeColor=none;fillColor=none;align=center;verticalAlign=middle;whiteSpace=wrap;rounded=0;" vertex="1" parent="vIYF7zvxIkphKYh6N7FT-4">
          <mxGeometry x="167.38095238095235" y="30" width="35.238095238095234" height="20" as="geometry" />
        </mxCell>
        <mxCell id="vIYF7zvxIkphKYh6N7FT-5" value="&lt;font style=&quot;font-size: 17px&quot;&gt;Components&lt;/font&gt;" style="rounded=1;whiteSpace=wrap;html=1;" vertex="1" parent="vIYF7zvxIkphKYh6N7FT-4">
          <mxGeometry x="114.52380952380952" y="220" width="140.95238095238093" height="90" as="geometry" />
        </mxCell>
        <mxCell id="vIYF7zvxIkphKYh6N7FT-26" value="" style="edgeStyle=orthogonalEdgeStyle;rounded=0;orthogonalLoop=1;jettySize=auto;html=1;" edge="1" parent="vIYF7zvxIkphKYh6N7FT-4" source="vIYF7zvxIkphKYh6N7FT-23" target="vIYF7zvxIkphKYh6N7FT-5">
          <mxGeometry relative="1" as="geometry" />
        </mxCell>
        <mxCell id="vIYF7zvxIkphKYh6N7FT-23" value="States" style="rounded=0;whiteSpace=wrap;html=1;" vertex="1" parent="vIYF7zvxIkphKYh6N7FT-4">
          <mxGeometry x="47.38000000000011" y="100" width="120" height="60" as="geometry" />
        </mxCell>
        <mxCell id="vIYF7zvxIkphKYh6N7FT-25" value="" style="edgeStyle=orthogonalEdgeStyle;rounded=0;orthogonalLoop=1;jettySize=auto;html=1;" edge="1" parent="vIYF7zvxIkphKYh6N7FT-4" source="vIYF7zvxIkphKYh6N7FT-24" target="vIYF7zvxIkphKYh6N7FT-5">
          <mxGeometry relative="1" as="geometry" />
        </mxCell>
        <mxCell id="vIYF7zvxIkphKYh6N7FT-24" value="Props" style="rounded=0;whiteSpace=wrap;html=1;" vertex="1" parent="vIYF7zvxIkphKYh6N7FT-4">
          <mxGeometry x="200" y="100" width="120" height="60" as="geometry" />
        </mxCell>
        <mxCell id="vIYF7zvxIkphKYh6N7FT-7" value="&lt;font style=&quot;font-size: 16px&quot;&gt;Material UI&lt;/font&gt;" style="whiteSpace=wrap;html=1;aspect=fixed;fillColor=#e1d5e7;strokeColor=#9673a6;" vertex="1" parent="1">
          <mxGeometry x="640" y="660" width="110" height="110" as="geometry" />
        </mxCell>
        <mxCell id="vIYF7zvxIkphKYh6N7FT-8" value="" style="endArrow=classic;html=1;exitX=0.5;exitY=0;exitDx=0;exitDy=0;entryX=0.25;entryY=1;entryDx=0;entryDy=0;" edge="1" parent="1" source="vIYF7zvxIkphKYh6N7FT-7" target="vIYF7zvxIkphKYh6N7FT-5">
          <mxGeometry width="50" height="50" relative="1" as="geometry">
            <mxPoint x="221.02999999999997" y="610" as="sourcePoint" />
            <mxPoint x="791.03" y="490" as="targetPoint" />
          </mxGeometry>
        </mxCell>
        <mxCell id="vIYF7zvxIkphKYh6N7FT-9" value="&lt;font style=&quot;font-size: 16px&quot;&gt;Tailwind CSS&lt;/font&gt;" style="whiteSpace=wrap;html=1;aspect=fixed;fillColor=#e1d5e7;strokeColor=#9673a6;" vertex="1" parent="1">
          <mxGeometry x="840" y="660" width="110" height="110" as="geometry" />
        </mxCell>
        <mxCell id="vIYF7zvxIkphKYh6N7FT-10" value="" style="endArrow=classic;html=1;exitX=0.5;exitY=0;exitDx=0;exitDy=0;entryX=0.75;entryY=1;entryDx=0;entryDy=0;" edge="1" parent="1" source="vIYF7zvxIkphKYh6N7FT-9" target="vIYF7zvxIkphKYh6N7FT-5">
          <mxGeometry width="50" height="50" relative="1" as="geometry">
            <mxPoint x="791.03" y="740" as="sourcePoint" />
            <mxPoint x="821.03" y="490" as="targetPoint" />
          </mxGeometry>
        </mxCell>
        <mxCell id="vIYF7zvxIkphKYh6N7FT-11" value="&lt;font&gt;&lt;span style=&quot;font-size: 19px&quot;&gt;React Router DOM&lt;/span&gt;&lt;br&gt;&lt;font style=&quot;font-size: 17px&quot;&gt;(Routing)&lt;/font&gt;&lt;br&gt;&lt;/font&gt;" style="rounded=0;whiteSpace=wrap;html=1;fillColor=#bac8d3;strokeColor=#23445d;" vertex="1" parent="1">
          <mxGeometry x="201.02999999999997" y="240" width="260" height="150" as="geometry" />
        </mxCell>
        <mxCell id="vIYF7zvxIkphKYh6N7FT-12" value="" style="endArrow=classic;html=1;exitX=1;exitY=0.5;exitDx=0;exitDy=0;entryX=0;entryY=0.25;entryDx=0;entryDy=0;" edge="1" parent="1" source="vIYF7zvxIkphKYh6N7FT-11" target="vIYF7zvxIkphKYh6N7FT-1">
          <mxGeometry width="50" height="50" relative="1" as="geometry">
            <mxPoint x="221.02999999999997" y="580" as="sourcePoint" />
            <mxPoint x="271.03" y="530" as="targetPoint" />
          </mxGeometry>
        </mxCell>
        <mxCell id="vIYF7zvxIkphKYh6N7FT-15" value="" style="group;fillColor=#f9f7ed;strokeColor=#36393d;container=0;" vertex="1" connectable="0" parent="1">
          <mxGeometry x="200" y="430" width="263.05999999999995" height="260" as="geometry" />
        </mxCell>
        <mxCell id="vIYF7zvxIkphKYh6N7FT-16" value="&lt;font style=&quot;font-size: 17px&quot;&gt;Atoms&lt;/font&gt;" style="rounded=1;whiteSpace=wrap;html=1;" vertex="1" parent="1">
          <mxGeometry x="271.53" y="550" width="120" height="70" as="geometry" />
        </mxCell>
        <mxCell id="vIYF7zvxIkphKYh6N7FT-14" value="&lt;font&gt;&lt;span style=&quot;font-size: 21px&quot;&gt;Recoil&lt;br&gt;&lt;/span&gt;&lt;font style=&quot;font-size: 17px&quot;&gt;(State Management System)&lt;/font&gt;&lt;br&gt;&lt;/font&gt;" style="text;html=1;strokeColor=none;fillColor=none;align=center;verticalAlign=middle;whiteSpace=wrap;rounded=0;" vertex="1" parent="1">
          <mxGeometry x="200" y="450" width="263.06" height="60" as="geometry" />
        </mxCell>
        <mxCell id="vIYF7zvxIkphKYh6N7FT-18" value="" style="endArrow=classic;html=1;exitX=1;exitY=0.75;exitDx=0;exitDy=0;entryX=0;entryY=0.25;entryDx=0;entryDy=0;" edge="1" parent="1" source="vIYF7zvxIkphKYh6N7FT-14" target="vIYF7zvxIkphKYh6N7FT-5">
          <mxGeometry width="50" height="50" relative="1" as="geometry">
            <mxPoint x="221.02999999999997" y="570" as="sourcePoint" />
            <mxPoint x="271.03" y="520" as="targetPoint" />
          </mxGeometry>
        </mxCell>
        <mxCell id="vIYF7zvxIkphKYh6N7FT-19" value="" style="endArrow=classic;html=1;exitX=-0.013;exitY=0.643;exitDx=0;exitDy=0;exitPerimeter=0;" edge="1" parent="1" source="vIYF7zvxIkphKYh6N7FT-5">
          <mxGeometry width="50" height="50" relative="1" as="geometry">
            <mxPoint x="473.0600000000002" y="520" as="sourcePoint" />
            <mxPoint x="461.03" y="530" as="targetPoint" />
          </mxGeometry>
        </mxCell>
        <mxCell id="vIYF7zvxIkphKYh6N7FT-20" value="Set State of Atom" style="text;html=1;strokeColor=none;fillColor=none;align=center;verticalAlign=middle;whiteSpace=wrap;rounded=0;" vertex="1" parent="1">
          <mxGeometry x="491.03" y="530" width="120" height="20" as="geometry" />
        </mxCell>
        <mxCell id="vIYF7zvxIkphKYh6N7FT-21" style="edgeStyle=orthogonalEdgeStyle;rounded=0;orthogonalLoop=1;jettySize=auto;html=1;exitX=0.5;exitY=1;exitDx=0;exitDy=0;" edge="1" parent="1" source="vIYF7zvxIkphKYh6N7FT-20" target="vIYF7zvxIkphKYh6N7FT-20">
          <mxGeometry relative="1" as="geometry" />
        </mxCell>
        <mxCell id="vIYF7zvxIkphKYh6N7FT-22" value="Get Value of Atom" style="text;html=1;strokeColor=none;fillColor=none;align=center;verticalAlign=middle;whiteSpace=wrap;rounded=0;" vertex="1" parent="1">
          <mxGeometry x="491.03" y="470" width="120" height="20" as="geometry" />
        </mxCell>
        <mxCell id="vIYF7zvxIkphKYh6N7FT-27" value="" style="shape=cylinder3;whiteSpace=wrap;html=1;boundedLbl=1;backgroundOutline=1;size=15;fillColor=#fff2cc;strokeColor=#d6b656;" vertex="1" parent="1">
          <mxGeometry x="1130" y="240" width="210" height="360" as="geometry" />
        </mxCell>
        <mxCell id="vIYF7zvxIkphKYh6N7FT-28" value="&lt;font&gt;&lt;span style=&quot;font-size: 19px&quot;&gt;Firebase&lt;/span&gt;&lt;br&gt;&lt;font style=&quot;font-size: 17px&quot;&gt;(Database)&lt;/font&gt;&lt;br&gt;&lt;/font&gt;" style="text;html=1;strokeColor=none;fillColor=none;align=center;verticalAlign=middle;whiteSpace=wrap;rounded=0;" vertex="1" parent="1">
          <mxGeometry x="1195" y="280" width="80" height="60" as="geometry" />
        </mxCell>
        <mxCell id="vIYF7zvxIkphKYh6N7FT-29" value="&lt;font style=&quot;font-size: 17px&quot;&gt;Authentication&lt;/font&gt;" style="rounded=1;whiteSpace=wrap;html=1;" vertex="1" parent="1">
          <mxGeometry x="1165" y="360" width="140" height="40" as="geometry" />
        </mxCell>
        <mxCell id="vIYF7zvxIkphKYh6N7FT-30" value="&lt;font style=&quot;font-size: 17px&quot;&gt;Image Storage&lt;/font&gt;" style="rounded=1;whiteSpace=wrap;html=1;" vertex="1" parent="1">
          <mxGeometry x="1165" y="430" width="140" height="40" as="geometry" />
        </mxCell>
        <mxCell id="vIYF7zvxIkphKYh6N7FT-31" value="&lt;font style=&quot;font-size: 17px&quot;&gt;Firestore&lt;/font&gt;" style="rounded=1;whiteSpace=wrap;html=1;" vertex="1" parent="1">
          <mxGeometry x="1165" y="520" width="140" height="40" as="geometry" />
        </mxCell>
        <mxCell id="vIYF7zvxIkphKYh6N7FT-33" value="" style="endArrow=classic;startArrow=classic;html=1;entryX=0;entryY=0.382;entryDx=0;entryDy=0;entryPerimeter=0;exitX=1.004;exitY=0.384;exitDx=0;exitDy=0;exitPerimeter=0;" edge="1" parent="1" source="vIYF7zvxIkphKYh6N7FT-1" target="vIYF7zvxIkphKYh6N7FT-27">
          <mxGeometry width="50" height="50" relative="1" as="geometry">
            <mxPoint x="980" y="420" as="sourcePoint" />
            <mxPoint x="810" y="520" as="targetPoint" />
            <Array as="points">
              <mxPoint x="990" y="378" />
              <mxPoint x="1040" y="378" />
            </Array>
          </mxGeometry>
        </mxCell>
        <mxCell id="vIYF7zvxIkphKYh6N7FT-34" value="&lt;font style=&quot;font-size: 13px&quot;&gt;Register/Log In Authentication&lt;/font&gt;" style="text;html=1;strokeColor=none;fillColor=none;align=center;verticalAlign=middle;whiteSpace=wrap;rounded=0;" vertex="1" parent="1">
          <mxGeometry x="981.03" y="350" width="140" height="20" as="geometry" />
        </mxCell>
        <mxCell id="vIYF7zvxIkphKYh6N7FT-35" value="" style="endArrow=classic;html=1;exitX=0.5;exitY=1;exitDx=0;exitDy=0;" edge="1" parent="1" source="vIYF7zvxIkphKYh6N7FT-30" target="vIYF7zvxIkphKYh6N7FT-31">
          <mxGeometry width="50" height="50" relative="1" as="geometry">
            <mxPoint x="760" y="570" as="sourcePoint" />
            <mxPoint x="810" y="520" as="targetPoint" />
          </mxGeometry>
        </mxCell>
        <mxCell id="vIYF7zvxIkphKYh6N7FT-36" value="" style="endArrow=classic;startArrow=classic;html=1;entryX=0;entryY=0.382;entryDx=0;entryDy=0;entryPerimeter=0;exitX=1.004;exitY=0.384;exitDx=0;exitDy=0;exitPerimeter=0;" edge="1" parent="1">
          <mxGeometry width="50" height="50" relative="1" as="geometry">
            <mxPoint x="971.0299999999997" y="538.24" as="sourcePoint" />
            <mxPoint x="1128.56" y="537.52" as="targetPoint" />
            <Array as="points">
              <mxPoint x="988.56" y="538" />
              <mxPoint x="1038.56" y="538" />
            </Array>
          </mxGeometry>
        </mxCell>
        <mxCell id="vIYF7zvxIkphKYh6N7FT-37" value="&lt;font style=&quot;font-size: 13px&quot;&gt;Setting and Getting Data&lt;/font&gt;" style="text;html=1;strokeColor=none;fillColor=none;align=center;verticalAlign=middle;whiteSpace=wrap;rounded=0;" vertex="1" parent="1">
          <mxGeometry x="969.59" y="510" width="160.41" height="20" as="geometry" />
        </mxCell>
      </root>
    </mxGraphModel>
  </diagram>
</mxfile>
